# xmcd
#
# Track frame offsets:
#	150
#	38085
#	79900
#	120388
#	135188
#	159030
#	185643
#	197473
#	219898
#	251208
#
# Disc length: 3698 seconds
#
# Revision: 1
# Processed by: cddbd v1.5.2PL0 Copyright (c) Steve Scherf et al.
# Submitted via: audiograbber 1.83.01
#
DISCID=770e700a
DTITLE=Rory Gallagher - BBC Sessions 1
DYEAR=1999
DGENRE=Rock
TTITLE0=Calling Card (20.1.77)
TTITLE1=What in The World (1.2.73)
TTITLE2=Jacknife Beat (20.1.77)
TTITLE3=Country Mile (13.1.79)
TTITLE4=Got My Mojo Working (13.1.79)
TTITLE5=Garbage Man (1978)
TTITLE6=Roberta (1978)
TTITLE7=Used to Be (13.1.79)
TTITLE8=I Take What I Want (20.1.77)
TTITLE9=Cruise On Out (20.9.79)
EXTD=
EXTT0=
EXTT1=
EXTT2=
EXTT3=
EXTT4=
EXTT5=
EXTT6=
EXTT7=
EXTT8=
EXTT9=
PLAYORDER=
